<svg width="225" height="58" viewBox="0 0 225 58" fill="none" xmlns="http://www.w3.org/2000/svg">
<path d="M3.83033 57.1568V10.9147C3.83033 10.3905 3.55498 10.105 3.01098 10.105H0.823823C0.273115 10.105 0 9.84624 0 9.30418V0.82089C0 0.276603 0.273115 0 0.823823 0H11.7708C12.6864 0 13.4319 0.276601 13.9602 0.769582C14.5042 1.29156 14.784 2.03215 14.784 2.99357V57.159C14.784 57.6966 14.5042 57.9643 13.9602 57.9643H4.634C4.07658 57.9643 3.83257 57.6989 3.83257 57.159" fill="url(#paint0_linear_41314_16868)"/>
<path d="M64.7552 48.6713V57.1568C64.7552 57.6944 64.4978 57.9621 63.9515 57.9621H26.5549C26.0243 57.9621 25.7355 57.6966 25.7355 57.1568V42.4521C25.7355 40.2928 25.9549 38.4659 26.3937 36.9892C26.8235 35.5125 27.3966 34.2477 28.0884 33.1903C28.7891 32.1397 29.6062 31.2385 30.533 30.4734C31.4687 29.7261 32.4157 29.0212 33.3626 28.3788C34.2805 27.7832 35.449 27.2567 36.8683 26.7548C38.2653 26.2708 39.7607 25.809 41.3725 25.3562C42.953 24.8989 44.5514 24.3948 46.1364 23.846C47.737 23.3151 49.163 22.6749 50.4346 21.9432C51.724 21.2227 52.7628 20.3773 53.5709 19.4003C54.3701 18.4277 54.7775 17.2454 54.7775 15.8579C54.7775 15.4274 54.7171 14.8742 54.5828 14.2295C54.4462 13.5782 54.1574 12.9491 53.7769 12.3357C53.3717 11.7066 52.8299 11.1936 52.1583 10.7608C51.4711 10.3348 50.6316 10.105 49.5973 10.105H28.263C27.7078 10.105 27.4436 9.84624 27.4436 9.30418V0.82089C27.4436 0.276603 27.7078 0 28.263 0H49.5973C52.4583 0 54.9141 0.521978 56.9781 1.54586C59.0377 2.57421 60.6943 3.87246 62.0151 5.43394C63.3068 6.99319 64.256 8.7019 64.8873 10.5578C65.4962 12.4182 65.8208 14.1827 65.8208 15.8579C65.8208 18.7667 65.6059 21.1268 65.1649 22.9203C64.7328 24.7316 63.956 26.2529 62.8479 27.4887C61.7509 28.7357 60.2533 29.7975 58.3504 30.6853C56.4543 31.5731 54.05 32.5345 51.1308 33.545C49.4518 34.1473 47.8512 34.6804 46.3132 35.1712C44.7641 35.6619 43.3985 36.1482 42.2366 36.6635C41.077 37.1877 40.1681 37.7521 39.4473 38.4035C38.7578 39.037 38.3996 39.8489 38.3996 40.826V47.0585C38.3996 47.5916 38.6682 47.8616 39.2055 47.8616H63.9515C64.4978 47.8616 64.7552 48.1315 64.7552 48.6735" fill="url(#paint1_linear_41314_16868)"/>
<path d="M76.5193 57.9956C75.9664 57.9956 75.7 57.7302 75.7 57.1904V48.7048C75.7 48.1628 75.9664 47.8906 76.5193 47.8906H99.6737C100.54 47.8906 101.368 47.6676 102.141 47.2482C102.913 46.8155 103.636 46.2422 104.254 45.5507C104.852 44.8413 105.358 44.094 105.709 43.2865C106.058 42.4835 106.224 41.667 106.224 40.8551C106.224 40.1078 106.125 39.2044 105.949 38.1849C105.756 37.1677 105.337 36.1996 104.69 35.285C104.05 34.3638 103.083 33.5987 101.816 32.9763C100.549 32.3606 98.8386 32.0595 96.6806 32.0595H82.745C82.2256 32.0595 81.9391 31.7829 81.9391 31.2363V22.7553C81.9391 22.211 82.2256 21.95 82.745 21.95H100.081C100.78 21.95 101.469 21.7537 102.136 21.3767C102.814 21.0042 103.435 20.5358 103.961 19.9602C104.5 19.387 104.93 18.7512 105.261 18.0195C105.588 17.299 105.729 16.5808 105.729 15.8892C105.729 15.1241 105.588 14.3969 105.261 13.7054C104.93 13.0094 104.5 12.3893 103.961 11.8762C103.435 11.361 102.814 10.946 102.136 10.6204C101.469 10.2947 100.777 10.1363 100.081 10.1363H76.5126C75.9596 10.1363 75.6932 9.87755 75.6932 9.33549V0.852201C75.6932 0.307914 75.9596 0.031311 76.5126 0.031311H99.1006C105.362 0.031311 110.119 1.45003 113.372 4.28746C116.62 7.10928 118.225 10.9817 118.225 15.8892C118.225 18.1489 118.046 20.0985 117.654 21.7403C117.267 23.3888 116.347 24.8031 114.823 25.992C114.514 26.2575 114.014 26.5207 113.372 26.7884C112.716 27.0605 112.394 27.2903 112.394 27.4397C112.394 27.6003 112.716 27.9193 113.372 28.3632C114.014 28.8205 114.514 29.2689 114.823 29.7106C116.347 31.446 117.319 33.3287 117.782 35.4122C118.248 37.4689 118.483 39.8802 118.483 42.6418C118.483 44.5758 118.151 46.4809 117.491 48.3345C116.86 50.1927 115.915 51.8568 114.691 53.2755C113.484 54.6831 112.027 55.8386 110.318 56.7197C108.622 57.5718 106.685 57.9934 104.534 57.9934H76.5126L76.5193 57.9956Z" fill="url(#paint2_linear_41314_16868)"/>
<path d="M130.263 0.0335693H160.435C161.944 0.0335693 163.448 0.334709 164.897 0.930302C166.363 1.5192 167.789 2.54978 169.195 4.00196C171.626 6.53825 172.925 10.3683 173.09 15.4766V17.3481C173.09 22.0839 172.517 25.5325 171.389 27.6807C170.643 28.7715 169.842 29.7418 169.038 30.6319C168.226 31.5264 167.117 32.3562 165.712 33.099C165.66 33.1592 165.586 33.2351 165.519 33.3466C165.434 33.4448 165.389 33.5808 165.389 33.7548C165.389 33.8619 165.418 33.9623 165.465 34.0738C166.703 35.6955 167.594 37.112 168.107 38.3099C168.617 39.5368 169.09 40.7681 169.528 42.0797L173.983 55.736C174.095 56.1732 174.295 56.5636 174.601 56.9138C174.886 57.264 175.045 57.4893 175.045 57.5964C175.045 57.8618 174.874 58.0001 174.563 58.0001H163.352C163.032 58.0001 162.68 57.728 162.304 57.1458C161.933 56.6015 161.684 56.1174 161.568 55.7382L156.547 41.5801C155.788 38.582 154.252 36.9023 151.928 36.5878H142.022C141.487 36.5878 141.201 36.8532 141.201 37.3975V57.1948C141.201 57.7324 140.93 58.0001 140.395 58.0001H130.265C129.723 58.0001 129.443 57.7347 129.443 57.1948V0.856692C129.443 0.312405 129.723 0.0358022 130.265 0.0358022M142.02 10.5602C141.485 10.5602 141.198 10.8278 141.198 11.3565V24.5265C141.198 25.073 141.498 25.3474 142.107 25.3474H156.795C157.549 25.3474 158.389 24.9682 159.296 24.212C160.05 23.5695 160.63 22.6215 161.037 21.3834C161.447 20.1387 161.644 18.7869 161.644 17.2567C161.644 16.5049 161.61 15.8201 161.514 15.1955C161.447 14.5687 161.263 13.9954 161.006 13.4556C160.137 11.6911 159.11 10.7208 157.926 10.5602H142.02Z" fill="url(#paint3_linear_41314_16868)"/>
<path d="M184.039 10.8702C184.039 9.04104 184.328 7.44834 184.948 6.10547C185.533 4.76036 186.361 3.63833 187.418 2.74606C188.472 1.86047 189.708 1.1935 191.154 0.725057C192.569 0.267767 194.118 0.031311 195.792 0.031311H224.19C224.74 0.031311 225 0.307914 225 0.852201V9.73256C225 10.2858 224.74 10.5557 224.19 10.5557H199.694C198.237 10.5557 197.225 10.9416 196.659 11.7112C196.081 12.4897 195.79 13.6117 195.79 15.0728V22.7553C195.79 23.3464 196.077 23.6453 196.614 23.6453H221.508C222.061 23.6453 222.331 23.9152 222.331 24.4461V33.3443C222.331 33.8886 222.063 34.1474 221.508 34.1474H196.614C196.077 34.1474 195.79 34.4508 195.79 35.0307V57.1881C195.79 57.7257 195.53 57.9934 194.989 57.9934H184.854C184.31 57.9934 184.035 57.728 184.035 57.1881V10.868L184.039 10.8702Z" fill="url(#paint4_linear_41314_16868)"/>
<defs>
<linearGradient id="paint0_linear_41314_16868" x1="738.136" y1="170.114" x2="14.1303" y2="29.0998" gradientUnits="userSpaceOnUse">
<stop stop-color="#451D5D"/>
<stop offset="0.31" stop-color="#AB00E1"/>
<stop offset="0.63" stop-color="#FF58FF"/>
<stop offset="0.69" stop-color="#FF6BD1"/>
<stop offset="0.8" stop-color="#FF9278"/>
<stop offset="0.9" stop-color="#FFAE37"/>
<stop offset="0.96" stop-color="#FFC00F"/>
<stop offset="1" stop-color="#FFC700"/>
</linearGradient>
<linearGradient id="paint1_linear_41314_16868" x1="739.249" y1="164.399" x2="15.243" y2="23.3824" gradientUnits="userSpaceOnUse">
<stop stop-color="#451D5D"/>
<stop offset="0.31" stop-color="#AB00E1"/>
<stop offset="0.63" stop-color="#FF58FF"/>
<stop offset="0.69" stop-color="#FF6BD1"/>
<stop offset="0.8" stop-color="#FF9278"/>
<stop offset="0.9" stop-color="#FFAE37"/>
<stop offset="0.96" stop-color="#FFC00F"/>
<stop offset="1" stop-color="#FFC700"/>
</linearGradient>
<linearGradient id="paint2_linear_41314_16868" x1="741.071" y1="155.039" x2="17.0652" y2="14.0227" gradientUnits="userSpaceOnUse">
<stop stop-color="#451D5D"/>
<stop offset="0.31" stop-color="#AB00E1"/>
<stop offset="0.63" stop-color="#FF58FF"/>
<stop offset="0.69" stop-color="#FF6BD1"/>
<stop offset="0.8" stop-color="#FF9278"/>
<stop offset="0.9" stop-color="#FFAE37"/>
<stop offset="0.96" stop-color="#FFC00F"/>
<stop offset="1" stop-color="#FFC700"/>
</linearGradient>
<linearGradient id="paint3_linear_41314_16868" x1="743.12" y1="144.524" x2="19.1136" y2="3.50724" gradientUnits="userSpaceOnUse">
<stop stop-color="#451D5D"/>
<stop offset="0.31" stop-color="#AB00E1"/>
<stop offset="0.63" stop-color="#FF58FF"/>
<stop offset="0.69" stop-color="#FF6BD1"/>
<stop offset="0.8" stop-color="#FF9278"/>
<stop offset="0.9" stop-color="#FFAE37"/>
<stop offset="0.96" stop-color="#FFC00F"/>
<stop offset="1" stop-color="#FFC700"/>
</linearGradient>
<linearGradient id="paint4_linear_41314_16868" x1="745.251" y1="133.585" x2="21.2447" y2="-7.43216" gradientUnits="userSpaceOnUse">
<stop stop-color="#451D5D"/>
<stop offset="0.31" stop-color="#AB00E1"/>
<stop offset="0.63" stop-color="#FF58FF"/>
<stop offset="0.69" stop-color="#FF6BD1"/>
<stop offset="0.8" stop-color="#FF9278"/>
<stop offset="0.9" stop-color="#FFAE37"/>
<stop offset="0.96" stop-color="#FFC00F"/>
<stop offset="1" stop-color="#FFC700"/>
</linearGradient>
</defs>
</svg>
